<svg xmlns="http://www.w3.org/2000/svg" width="640" height="640" viewBox="0 0 640 640" fill="none">
  <rect width="640" height="640" fill="#FFFFFF"/>
  <g stroke="#39E079" stroke-width="4" stroke-linecap="round" stroke-linejoin="round" opacity="0.28">
    <g transform="translate(34 42)">
      <path d="M26 44L42 28L58 44"/>
      <path d="M42 28V84"/>
      <path d="M10 84H74"/>
    </g>
    <g transform="translate(150 28)">
      <path d="M20 24H84L90 38V86H14V38L20 24Z"/>
      <path d="M34 24V12H70V24"/>
      <circle cx="52" cy="56" r="16"/>
      <path d="M52 44C58 48 60 54 56 60C53 64 47 66 44 72"/>
    </g>
    <g transform="translate(290 38)">
      <path d="M14 30H84"/>
      <path d="M24 30L32 82H66L74 30"/>
      <path d="M40 30V18H58V30"/>
      <path d="M32 52H66"/>
      <path d="M36 64H62"/>
    </g>
    <g transform="translate(430 34)">
      <path d="M18 22H70L80 34V86H8V34L18 22Z"/>
      <path d="M44 44C54 44 62 52 62 62C62 72 54 80 44 80C34 80 26 72 26 62C26 52 34 44 44 44Z"/>
      <path d="M44 34V22"/>
    </g>
    <g transform="translate(540 42)">
      <path d="M16 68C24 48 34 32 48 20C62 32 72 48 80 68"/>
      <path d="M48 20V84"/>
      <path d="M26 48H70"/>
      <path d="M22 62H74"/>
    </g>

    <g transform="translate(20 168)">
      <path d="M18 24H86"/>
      <path d="M28 24L18 54L34 86H70L86 54L76 24"/>
      <path d="M42 54L48 62L62 44"/>
    </g>
    <g transform="translate(162 170)">
      <path d="M24 82H80"/>
      <path d="M52 20C36 20 24 34 24 50C24 64 34 76 48 80V96"/>
      <path d="M52 20C68 20 80 34 80 50C80 64 70 76 56 80V96"/>
      <path d="M52 20V96"/>
    </g>
    <g transform="translate(294 172)">
      <circle cx="48" cy="52" r="34"/>
      <path d="M48 26C54 34 56 42 54 50C52 58 46 62 42 68"/>
      <path d="M70 44C64 50 58 54 50 56C42 58 36 64 32 72"/>
      <path d="M62 72C56 66 50 62 42 60C34 58 28 52 24 44"/>
    </g>
    <g transform="translate(432 170)">
      <path d="M48 20V60"/>
      <path d="M32 76H64"/>
      <path d="M28 96H68"/>
      <path d="M20 42C20 26 32 14 48 14C64 14 76 26 76 42C76 52 70 62 60 68V96H36V68C26 62 20 52 20 42Z"/>
    </g>
    <g transform="translate(542 168)">
      <path d="M16 26L34 16L68 28L80 56L66 82L36 88L16 70L10 46Z"/>
      <path d="M34 16L42 38L16 26"/>
      <path d="M68 28L48 46L80 56"/>
      <path d="M66 82L48 46L36 88"/>
    </g>

    <g transform="translate(22 296)">
      <path d="M18 70C26 42 46 22 72 18"/>
      <path d="M18 70L34 86"/>
      <path d="M72 18L86 32"/>
      <path d="M36 82C42 60 58 42 80 36"/>
    </g>
    <g transform="translate(150 296)">
      <path d="M18 26H86"/>
      <path d="M30 26V74C30 82 36 88 44 88H60C68 88 74 82 74 74V26"/>
      <path d="M52 26V88"/>
      <path d="M38 48H66"/>
    </g>
    <g transform="translate(286 290)">
      <path d="M48 18C60 18 70 28 70 40V84H26V40C26 28 36 18 48 18Z"/>
      <path d="M18 84H78"/>
      <path d="M34 38H62"/>
      <path d="M40 54H56"/>
    </g>
    <g transform="translate(424 292)">
      <path d="M18 30L44 18L70 30L80 56L68 82H20L8 56L18 30Z"/>
      <path d="M30 44L44 30L58 44"/>
      <path d="M44 30V70"/>
    </g>
    <g transform="translate(550 292)">
      <path d="M12 36H84"/>
      <path d="M20 36L30 82H66L76 36"/>
      <path d="M34 52H62"/>
      <path d="M38 66H58"/>
      <path d="M30 24H66"/>
    </g>

    <g transform="translate(34 418)">
      <path d="M24 24H72"/>
      <path d="M24 24L20 54C18 72 32 88 50 88H46C64 88 78 72 76 54L72 24"/>
      <path d="M36 48H64"/>
      <path d="M40 64H60"/>
    </g>
    <g transform="translate(156 422)">
      <path d="M48 16V58"/>
      <path d="M28 78H68"/>
      <path d="M24 94H72"/>
      <path d="M18 38C18 22 30 10 48 10C66 10 78 22 78 38C78 48 72 58 62 64V94H34V64C24 58 18 48 18 38Z"/>
    </g>
    <g transform="translate(286 420)">
      <path d="M18 62C26 36 46 18 74 16"/>
      <path d="M18 62L32 82"/>
      <path d="M74 16L86 36"/>
      <path d="M38 74C46 56 60 42 78 38"/>
    </g>
    <g transform="translate(418 418)">
      <circle cx="48" cy="52" r="34"/>
      <path d="M26 56C34 44 44 38 56 38C66 38 74 44 80 54"/>
      <path d="M24 64C32 76 42 82 54 82C64 82 74 76 80 66"/>
      <path d="M32 34C42 30 54 30 64 34"/>
    </g>
    <g transform="translate(548 418)">
      <path d="M16 30L42 16L70 30L80 58L66 84H30L12 58L16 30Z"/>
      <path d="M28 50H58"/>
      <path d="M28 64H54"/>
      <path d="M52 16V30"/>
    </g>

    <g transform="translate(24 544)">
      <path d="M18 24H86"/>
      <path d="M28 24L18 54L34 86H70L86 54L76 24"/>
      <path d="M44 44L54 54L68 38"/>
    </g>
    <g transform="translate(160 548)">
      <path d="M48 22V84"/>
      <path d="M20 52H76"/>
      <path d="M26 30L48 8L70 30"/>
      <path d="M26 74L48 96L70 74"/>
    </g>
    <g transform="translate(296 544)">
      <path d="M18 30L44 18L72 30L82 56L66 82H20L8 56L18 30Z"/>
      <path d="M34 46L46 58L64 36"/>
    </g>
    <g transform="translate(430 548)">
      <path d="M18 26H86"/>
      <path d="M26 26V82H78V26"/>
      <path d="M38 46H66"/>
      <path d="M38 60H62"/>
      <path d="M38 74H58"/>
    </g>
    <g transform="translate(550 544)">
      <path d="M16 68C24 48 34 32 48 20C62 32 72 48 80 68"/>
      <path d="M48 20V84"/>
      <path d="M26 48H70"/>
      <path d="M22 62H74"/>
    </g>
  </g>
</svg>
